<?xml version="1.0" standalone="no"?>
<!DOCTYPE svg PUBLIC "-//W3C//DTD SVG 1.0//EN" "http://www.w3.org/TR/2001/REC-SVG-20010904/DTD/svg10.dtd">
<svg xmlns="http://www.w3.org/2000/svg" xmlns:xlink="http://www.w3.org/1999/xlink" id="body_1" width="68" height="68">

<g transform="matrix(0.3285024 0 0 0.3285024 0 0)">
    <path transform="matrix(0.03199381 0 0 -0.03199381 0 207)"  d="M5035 4730C 5032 4725 5021 4720 5012 4720C 5003 4720 4980 4706 4963 4690C 4935 4665 4930 4653 4930 4615C 4930 4590 4923 4553 4914 4532C 4906 4511 4896 4450 4893 4392C 4889 4325 4882 4286 4873 4279C 4866 4272 4860 4248 4860 4220C 4860 4190 4854 4168 4845 4160C 4836 4152 4830 4130 4830 4101C 4830 4075 4823 4045 4815 4034C 4807 4024 4800 3999 4800 3979C 4800 3959 4793 3937 4785 3930C 4777 3923 4770 3906 4770 3891C 4770 3877 4763 3853 4756 3838C 4748 3822 4738 3790 4734 3765C 4731 3740 4724 3720 4720 3720C 4716 3720 4710 3703 4706 3681C 4703 3660 4693 3630 4685 3614C 4677 3598 4670 3576 4670 3565C 4669 3554 4663 3534 4655 3520C 4647 3506 4641 3485 4640 3474C 4640 3462 4633 3439 4625 3424C 4617 3408 4610 3383 4610 3368C 4610 3352 4606 3340 4600 3340C 4595 3340 4588 3323 4584 3303C 4580 3282 4571 3256 4564 3245C 4556 3234 4550 3214 4550 3200C 4550 3186 4543 3166 4535 3156C 4527 3145 4520 3124 4520 3108C 4520 3093 4516 3080 4510 3080C 4505 3080 4498 3063 4494 3043C 4490 3022 4481 2996 4474 2985C 4466 2974 4460 2954 4460 2940C 4460 2926 4453 2906 4445 2896C 4437 2885 4430 2866 4430 2854C 4430 2841 4426 2829 4421 2825C 4416 2822 4408 2805 4404 2788C 4401 2770 4394 2749 4390 2740C 4386 2732 4375 2707 4366 2685C 4356 2663 4342 2632 4334 2617C 4326 2601 4320 2583 4320 2575C 4320 2568 4313 2557 4305 2550C 4297 2543 4290 2524 4290 2508C 4290 2492 4284 2477 4275 2474C 4267 2470 4260 2458 4260 2446C 4260 2435 4253 2416 4245 2406C 4237 2395 4230 2380 4230 2372C 4230 2364 4219 2349 4205 2338C 4191 2327 4180 2310 4180 2299C 4180 2288 4173 2277 4165 2274C 4157 2270 4150 2260 4150 2250C 4150 2240 4143 2227 4135 2220C 4127 2213 4120 2200 4120 2190C 4120 2180 4113 2167 4105 2160C 4097 2153 4090 2140 4090 2130C 4090 2120 4083 2107 4075 2100C 4067 2093 4060 2080 4060 2070C 4060 2060 4053 2047 4045 2040C 4037 2033 4030 2022 4030 2016C 4030 2009 4017 1992 4002 1977C 3975 1951 3972 1951 3944 1964C 3928 1972 3899 1995 3880 2015C 3861 2036 3835 2056 3823 2061C 3810 2066 3800 2077 3800 2085C 3800 2094 3784 2118 3765 2138C 3746 2158 3730 2182 3730 2191C 3730 2199 3719 2217 3705 2230C 3691 2243 3680 2261 3680 2271C 3680 2281 3676 2292 3670 2295C 3665 2298 3660 2309 3660 2319C 3660 2329 3649 2347 3635 2360C 3621 2373 3610 2392 3610 2402C 3610 2412 3599 2433 3585 2448C 3571 2463 3560 2482 3560 2492C 3560 2501 3557 2510 3553 2512C 3548 2514 3537 2531 3528 2550C 3518 2569 3506 2592 3502 2600C 3479 2640 3470 2661 3470 2674C 3470 2681 3464 2693 3456 2700C 3448 2706 3444 2718 3447 2726C 3450 2733 3445 2743 3436 2746C 3427 2749 3420 2763 3420 2776C 3420 2789 3416 2800 3410 2800C 3405 2800 3400 2811 3400 2825C 3400 2839 3396 2850 3390 2850C 3385 2850 3380 2860 3380 2873C 3380 2885 3372 2903 3363 2911C 3353 2920 3322 2952 3293 2983C 3245 3036 3237 3040 3198 3040C 3160 3039 3148 3033 3098 2986C 3057 2948 3040 2925 3040 2907C 3040 2894 3033 2877 3025 2870C 3017 2863 3010 2850 3010 2840C 3010 2830 3003 2820 2995 2816C 2986 2813 2980 2798 2980 2782C 2980 2766 2973 2747 2964 2739C 2956 2732 2951 2718 2953 2708C 2956 2698 2949 2679 2939 2666C 2929 2653 2922 2635 2925 2628C 2928 2620 2922 2604 2911 2592C 2901 2579 2894 2561 2897 2551C 2899 2542 2894 2528 2886 2521C 2877 2513 2870 2495 2870 2480C 2870 2465 2863 2447 2855 2440C 2847 2433 2840 2414 2840 2398C 2840 2382 2834 2367 2825 2364C 2817 2360 2810 2346 2810 2330C 2810 2315 2803 2297 2795 2290C 2787 2283 2780 2269 2780 2258C 2780 2248 2773 2237 2765 2234C 2757 2230 2750 2219 2750 2209C 2750 2198 2743 2187 2735 2184C 2727 2180 2720 2170 2720 2161C 2720 2151 2709 2133 2695 2120C 2681 2107 2670 2091 2670 2084C 2670 2078 2663 2067 2655 2060C 2647 2053 2640 2040 2640 2030C 2640 2020 2633 2010 2625 2006C 2617 2003 2610 1992 2610 1981C 2610 1971 2603 1960 2595 1956C 2587 1953 2580 1942 2580 1932C 2580 1921 2573 1907 2565 1900C 2556 1893 2552 1885 2555 1882C 2561 1875 2500 1810 2488 1810C 2483 1810 2466 1825 2450 1843C 2427 1868 2422 1881 2426 1903C 2430 1921 2426 1940 2415 1956C 2405 1971 2401 1991 2404 2005C 2408 2019 2404 2032 2395 2040C 2387 2047 2380 2063 2380 2076C 2380 2088 2376 2102 2370 2105C 2365 2108 2360 2124 2360 2140C 2360 2156 2356 2172 2350 2175C 2345 2178 2340 2200 2340 2223C 2340 2246 2333 2273 2326 2283C 2318 2293 2314 2309 2317 2319C 2320 2329 2314 2352 2305 2369C 2296 2387 2292 2410 2295 2420C 2299 2431 2294 2450 2286 2462C 2277 2474 2270 2501 2270 2522C 2270 2542 2266 2562 2260 2565C 2255 2568 2250 2593 2250 2620C 2250 2647 2246 2672 2240 2675C 2235 2678 2230 2701 2230 2725C 2230 2749 2226 2772 2220 2775C 2215 2778 2210 2803 2210 2830C 2210 2857 2206 2882 2200 2885C 2195 2888 2190 2911 2190 2935C 2190 2959 2186 2982 2180 2985C 2175 2988 2170 3006 2170 3024C 2170 3043 2164 3063 2156 3069C 2146 3077 2143 3092 2147 3116C 2151 3140 2148 3156 2136 3169C 2125 3181 2121 3196 2125 3213C 2130 3231 2127 3241 2114 3248C 2101 3255 2098 3266 2103 3298C 2106 3327 2104 3343 2094 3351C 2086 3357 2080 3378 2080 3396C 2080 3415 2076 3430 2070 3430C 2065 3430 2060 3448 2060 3470C 2060 3492 2056 3510 2050 3510C 2045 3510 2040 3525 2040 3544C 2040 3562 2033 3583 2025 3590C 2014 3599 2011 3612 2015 3632C 2020 3652 2017 3662 2006 3666C 1994 3670 1990 3683 1992 3708C 1993 3729 1989 3745 1982 3748C 1975 3750 1970 3767 1970 3785C 1970 3804 1966 3822 1960 3825C 1955 3828 1950 3845 1950 3861C 1950 3878 1944 3897 1937 3904C 1930 3911 1900 3945 1870 3979C 1817 4039 1816 4040 1763 4040C 1734 4040 1702 4036 1692 4031C 1683 4026 1667 4019 1657 4016C 1648 4013 1640 4002 1640 3991C 1640 3980 1635 3970 1630 3968C 1624 3966 1617 3949 1615 3931C 1612 3912 1606 3892 1600 3886C 1587 3873 1587 3823 1600 3815C 1606 3812 1610 3794 1610 3775C 1610 3756 1614 3738 1620 3735C 1625 3732 1630 3716 1630 3700C 1630 3684 1635 3668 1640 3665C 1646 3662 1650 3648 1650 3635C 1650 3623 1657 3609 1666 3606C 1678 3601 1681 3592 1677 3571C 1673 3552 1676 3538 1685 3530C 1693 3523 1700 3503 1700 3484C 1700 3466 1704 3448 1710 3445C 1715 3442 1720 3419 1720 3395C 1720 3371 1725 3348 1730 3345C 1736 3342 1740 3324 1740 3306C 1740 3289 1745 3269 1752 3262C 1759 3255 1763 3233 1761 3212C 1760 3186 1764 3169 1775 3160C 1786 3151 1789 3138 1785 3119C 1780 3099 1783 3089 1796 3082C 1809 3075 1812 3064 1807 3032C 1804 3003 1806 2987 1816 2979C 1824 2973 1830 2952 1830 2934C 1830 2915 1835 2900 1840 2900C 1846 2900 1850 2882 1850 2860C 1850 2838 1855 2820 1860 2820C 1866 2820 1870 2805 1870 2786C 1870 2768 1877 2747 1885 2740C 1896 2731 1899 2718 1894 2693C 1889 2668 1892 2654 1905 2640C 1916 2627 1920 2612 1916 2597C 1912 2581 1916 2568 1925 2560C 1933 2553 1940 2532 1940 2514C 1940 2495 1945 2480 1950 2480C 1956 2480 1960 2462 1960 2440C 1960 2418 1965 2400 1970 2400C 1976 2400 1980 2378 1980 2351C 1980 2321 1985 2300 1992 2298C 1999 2295 2003 2279 2002 2258C 2000 2233 2004 2220 2016 2216C 2027 2212 2030 2202 2025 2182C 2021 2162 2024 2149 2035 2140C 2043 2133 2050 2112 2050 2094C 2050 2075 2055 2060 2060 2060C 2066 2060 2070 2045 2070 2027C 2070 2009 2076 1988 2083 1981C 2089 1975 2096 1952 2096 1932C 2099 1878 2110 1837 2127 1823C 2137 1816 2141 1801 2138 1786C 2135 1771 2139 1755 2146 1749C 2154 1743 2160 1723 2160 1704C 2160 1686 2165 1668 2170 1665C 2176 1662 2180 1651 2180 1641C 2180 1631 2187 1617 2195 1610C 2204 1602 2208 1589 2204 1573C 2199 1556 2203 1545 2215 1536C 2227 1527 2231 1515 2228 1497C 2225 1481 2228 1466 2236 1459C 2244 1453 2250 1440 2250 1431C 2250 1421 2261 1403 2275 1390C 2289 1377 2300 1358 2300 1348C 2300 1338 2308 1326 2318 1323C 2327 1319 2341 1310 2348 1303C 2357 1295 2389 1290 2441 1290C 2513 1290 2523 1293 2550 1317C 2567 1331 2580 1351 2580 1360C 2580 1369 2594 1387 2610 1400C 2627 1413 2640 1429 2640 1437C 2640 1445 2647 1458 2655 1467C 2663 1475 2668 1485 2665 1489C 2663 1493 2674 1510 2690 1525C 2707 1541 2720 1559 2720 1566C 2720 1572 2727 1583 2735 1590C 2743 1597 2750 1610 2750 1620C 2750 1630 2757 1640 2765 1644C 2773 1647 2780 1659 2780 1670C 2780 1681 2785 1690 2790 1690C 2796 1690 2800 1699 2800 1710C 2800 1721 2807 1733 2815 1736C 2823 1740 2830 1750 2830 1759C 2830 1768 2843 1787 2860 1800C 2881 1818 2889 1834 2890 1856C 2890 1875 2896 1890 2905 1894C 2913 1897 2920 1908 2920 1919C 2920 1929 2927 1940 2935 1944C 2944 1947 2950 1962 2950 1978C 2950 1994 2957 2013 2965 2020C 2973 2027 2980 2041 2980 2051C 2980 2062 2985 2070 2990 2070C 2996 2070 3000 2083 3000 2099C 3000 2115 3007 2133 3015 2140C 3023 2147 3030 2160 3030 2170C 3030 2180 3037 2190 3045 2194C 3054 2197 3060 2212 3060 2228C 3060 2244 3067 2263 3075 2270C 3083 2277 3090 2290 3090 2300C 3090 2310 3097 2320 3105 2324C 3114 2327 3120 2342 3120 2358C 3120 2374 3127 2393 3135 2400C 3143 2407 3150 2420 3150 2430C 3150 2440 3157 2450 3165 2454C 3174 2457 3180 2472 3180 2488C 3180 2504 3189 2525 3200 2535C 3223 2556 3221 2557 3244 2510C 3253 2491 3264 2468 3269 2460C 3274 2452 3283 2432 3290 2415C 3297 2399 3306 2377 3311 2368C 3316 2358 3320 2344 3320 2336C 3320 2329 3327 2317 3335 2310C 3343 2303 3350 2289 3350 2279C 3350 2268 3355 2260 3360 2260C 3366 2260 3370 2253 3370 2245C 3370 2236 3381 2212 3395 2190C 3409 2168 3420 2148 3420 2145C 3420 2141 3431 2124 3445 2106C 3459 2088 3470 2069 3470 2063C 3470 2058 3481 2043 3495 2030C 3509 2017 3520 2002 3520 1996C 3520 1991 3544 1955 3573 1916C 3602 1877 3633 1834 3642 1820C 3669 1777 3821 1620 3836 1620C 3844 1620 3853 1613 3856 1605C 3860 1597 3870 1590 3880 1590C 3890 1590 3903 1584 3909 1576C 3915 1569 3948 1560 3986 1557C 4049 1552 4052 1553 4085 1585C 4104 1603 4120 1624 4120 1633C 4120 1641 4127 1650 4135 1654C 4143 1657 4150 1669 4150 1680C 4150 1691 4154 1700 4158 1700C 4163 1700 4176 1722 4188 1749C 4200 1776 4214 1801 4220 1805C 4225 1808 4230 1819 4230 1830C 4230 1840 4237 1850 4245 1854C 4253 1857 4260 1869 4260 1880C 4260 1891 4267 1903 4275 1906C 4283 1910 4290 1920 4290 1930C 4290 1941 4295 1952 4300 1955C 4306 1959 4320 1984 4332 2011C 4344 2038 4357 2060 4362 2060C 4366 2060 4370 2073 4370 2089C 4370 2105 4377 2123 4385 2130C 4393 2137 4400 2150 4400 2160C 4400 2170 4407 2180 4415 2184C 4423 2187 4430 2198 4430 2208C 4430 2219 4437 2233 4445 2240C 4453 2247 4460 2265 4460 2280C 4460 2296 4467 2310 4475 2314C 4483 2317 4490 2328 4490 2339C 4490 2349 4497 2360 4505 2364C 4514 2367 4520 2382 4520 2398C 4520 2414 4527 2433 4535 2440C 4543 2447 4550 2461 4550 2471C 4550 2482 4554 2490 4559 2490C 4564 2490 4571 2506 4574 2525C 4578 2544 4585 2560 4590 2560C 4596 2560 4600 2571 4600 2584C 4600 2597 4607 2613 4615 2620C 4623 2627 4630 2647 4630 2665C 4630 2683 4637 2703 4645 2710C 4653 2717 4660 2735 4660 2750C 4660 2765 4667 2783 4675 2790C 4684 2798 4690 2819 4690 2845C 4690 2874 4695 2890 4705 2894C 4714 2897 4720 2912 4720 2928C 4720 2944 4727 2963 4735 2970C 4743 2977 4750 2999 4750 3020C 4750 3041 4757 3063 4765 3070C 4774 3078 4780 3100 4780 3127C 4780 3157 4785 3172 4795 3176C 4803 3180 4810 3194 4810 3210C 4810 3225 4817 3243 4825 3250C 4834 3258 4840 3279 4840 3305C 4840 3334 4845 3350 4855 3354C 4865 3358 4870 3374 4870 3405C 4870 3436 4875 3452 4885 3456C 4895 3460 4900 3476 4900 3506C 4900 3536 4905 3552 4915 3556C 4925 3560 4930 3576 4930 3600C 4930 3622 4937 3645 4946 3654C 4955 3663 4964 3689 4966 3711C 4969 3734 4978 3759 4986 3768C 4994 3776 4999 3789 4996 3797C 4993 3804 4999 3827 5010 3848C 5021 3868 5030 3897 5030 3912C 5030 3926 5035 3940 5041 3942C 5046 3944 5053 3966 5056 3990C 5059 4015 5068 4042 5076 4051C 5084 4059 5090 4083 5090 4102C 5090 4122 5097 4143 5105 4150C 5114 4158 5120 4179 5120 4205C 5120 4234 5125 4250 5135 4254C 5145 4258 5150 4274 5150 4304C 5150 4334 5155 4350 5165 4354C 5174 4357 5180 4372 5180 4388C 5180 4404 5187 4423 5195 4430C 5203 4437 5210 4451 5210 4461C 5210 4472 5215 4480 5220 4480C 5226 4480 5230 4494 5230 4510C 5230 4528 5236 4543 5245 4546C 5262 4553 5266 4610 5250 4610C 5245 4610 5240 4618 5240 4628C 5240 4638 5234 4652 5228 4658C 5221 4665 5215 4678 5215 4688C 5215 4700 5205 4706 5182 4708C 5164 4710 5146 4718 5143 4726C 5137 4742 5045 4746 5035 4730z" stroke="none" fill="#000000" fill-rule="nonzero" />
</g>
</svg>