<?xml version="1.0" standalone="no"?>
<!DOCTYPE svg PUBLIC "-//W3C//DTD SVG 1.0//EN" "http://www.w3.org/TR/2001/REC-SVG-20010904/DTD/svg10.dtd">
<svg xmlns="http://www.w3.org/2000/svg" xmlns:xlink="http://www.w3.org/1999/xlink" id="body_1" width="104" height="98">

<g transform="matrix(0.2109533 0 0 0.2098501 0 0)">
    <path transform="matrix(0.1332432 0 0 -0.1334286 0 467.0001)"  d="M3465 3470C 3462 3465 3451 3460 3442 3460C 3433 3460 3410 3446 3393 3430C 3365 3405 3360 3393 3360 3355C 3360 3330 3353 3293 3344 3272C 3336 3251 3326 3190 3323 3132C 3319 3065 3312 3026 3303 3019C 3296 3012 3290 2988 3290 2960C 3290 2930 3284 2908 3275 2900C 3266 2892 3260 2870 3260 2841C 3260 2815 3253 2785 3245 2774C 3237 2764 3230 2739 3230 2719C 3230 2699 3223 2677 3215 2670C 3207 2663 3200 2646 3200 2631C 3200 2617 3193 2593 3186 2578C 3178 2562 3168 2530 3164 2505C 3161 2480 3154 2460 3150 2460C 3146 2460 3140 2443 3136 2421C 3133 2400 3123 2370 3115 2354C 3107 2338 3100 2316 3100 2305C 3099 2294 3093 2274 3085 2260C 3077 2246 3071 2225 3070 2214C 3070 2202 3063 2179 3055 2164C 3047 2148 3040 2123 3040 2108C 3040 2092 3036 2080 3030 2080C 3025 2080 3018 2063 3014 2043C 3010 2022 3001 1996 2994 1985C 2986 1974 2980 1954 2980 1940C 2980 1926 2973 1906 2965 1896C 2957 1885 2950 1864 2950 1848C 2950 1833 2946 1820 2940 1820C 2935 1820 2928 1803 2924 1783C 2920 1762 2911 1736 2904 1725C 2896 1714 2890 1694 2890 1680C 2890 1666 2883 1646 2875 1636C 2867 1625 2860 1606 2860 1594C 2860 1581 2856 1569 2851 1565C 2846 1562 2838 1545 2834 1528C 2831 1510 2824 1489 2820 1480C 2816 1472 2805 1447 2796 1425C 2786 1403 2772 1372 2764 1357C 2756 1341 2750 1323 2750 1315C 2750 1308 2743 1297 2735 1290C 2727 1283 2720 1264 2720 1248C 2720 1232 2714 1217 2705 1214C 2697 1210 2690 1198 2690 1186C 2690 1175 2683 1156 2675 1146C 2667 1135 2660 1120 2660 1112C 2660 1104 2649 1089 2635 1078C 2621 1067 2610 1050 2610 1039C 2610 1028 2603 1017 2595 1014C 2587 1010 2580 1000 2580 990C 2580 980 2573 967 2565 960C 2557 953 2550 940 2550 930C 2550 920 2543 907 2535 900C 2527 893 2520 880 2520 870C 2520 860 2513 847 2505 840C 2497 833 2490 820 2490 810C 2490 800 2483 787 2475 780C 2467 773 2460 762 2460 756C 2460 749 2447 732 2432 717C 2405 691 2402 691 2374 704C 2358 712 2329 735 2310 755C 2291 776 2265 796 2253 801C 2240 806 2230 817 2230 825C 2230 834 2214 858 2195 878C 2176 898 2160 922 2160 931C 2160 939 2149 957 2135 970C 2121 983 2110 1001 2110 1011C 2110 1021 2106 1032 2100 1035C 2095 1038 2090 1049 2090 1059C 2090 1069 2079 1087 2065 1100C 2051 1113 2040 1132 2040 1142C 2040 1152 2029 1173 2015 1188C 2001 1203 1990 1222 1990 1232C 1990 1241 1987 1250 1983 1252C 1978 1254 1967 1271 1958 1290C 1948 1309 1936 1332 1932 1340C 1909 1380 1900 1401 1900 1414C 1900 1421 1894 1433 1886 1440C 1878 1446 1874 1458 1877 1466C 1880 1473 1875 1483 1866 1486C 1857 1489 1850 1503 1850 1516C 1850 1529 1846 1540 1840 1540C 1835 1540 1830 1551 1830 1565C 1830 1579 1826 1590 1820 1590C 1815 1590 1810 1600 1810 1613C 1810 1625 1802 1643 1793 1651C 1783 1660 1752 1692 1723 1723C 1675 1776 1667 1780 1628 1780C 1590 1779 1578 1773 1528 1726C 1487 1688 1470 1665 1470 1647C 1470 1634 1463 1617 1455 1610C 1447 1603 1440 1590 1440 1580C 1440 1570 1433 1560 1425 1556C 1416 1553 1410 1538 1410 1522C 1410 1506 1403 1487 1394 1479C 1386 1472 1381 1458 1383 1448C 1386 1438 1379 1419 1369 1406C 1359 1393 1352 1375 1355 1368C 1358 1360 1352 1344 1341 1332C 1331 1319 1324 1301 1327 1291C 1329 1282 1324 1268 1316 1261C 1307 1253 1300 1235 1300 1220C 1300 1205 1293 1187 1285 1180C 1277 1173 1270 1154 1270 1138C 1270 1122 1264 1107 1255 1104C 1247 1100 1240 1086 1240 1070C 1240 1055 1233 1037 1225 1030C 1217 1023 1210 1009 1210 998C 1210 988 1203 977 1195 974C 1187 970 1180 959 1180 949C 1180 938 1173 927 1165 924C 1157 920 1150 910 1150 901C 1150 891 1139 873 1125 860C 1111 847 1100 831 1100 824C 1100 818 1093 807 1085 800C 1077 793 1070 780 1070 770C 1070 760 1063 750 1055 746C 1047 743 1040 732 1040 721C 1040 711 1033 700 1025 696C 1017 693 1010 682 1010 672C 1010 661 1003 647 995 640C 986 633 982 625 985 622C 991 615 930 550 918 550C 913 550 896 565 880 583C 857 608 852 621 856 643C 860 661 856 680 845 696C 835 711 831 731 834 745C 838 759 834 772 825 780C 817 787 810 803 810 816C 810 828 806 842 800 845C 795 848 790 864 790 880C 790 896 786 912 780 915C 775 918 770 940 770 963C 770 986 763 1013 756 1023C 748 1033 744 1049 747 1059C 750 1069 744 1092 735 1109C 726 1127 722 1150 725 1160C 729 1171 724 1190 716 1202C 707 1214 700 1241 700 1262C 700 1282 696 1302 690 1305C 685 1308 680 1333 680 1360C 680 1387 676 1412 670 1415C 665 1418 660 1441 660 1465C 660 1489 656 1512 650 1515C 645 1518 640 1543 640 1570C 640 1597 636 1622 630 1625C 625 1628 620 1651 620 1675C 620 1699 616 1722 610 1725C 605 1728 600 1746 600 1764C 600 1783 594 1803 586 1809C 576 1817 573 1832 577 1856C 581 1880 578 1896 566 1909C 555 1921 551 1936 555 1953C 560 1971 557 1981 544 1988C 531 1995 528 2006 533 2038C 536 2067 534 2083 524 2091C 516 2097 510 2118 510 2136C 510 2155 506 2170 500 2170C 495 2170 490 2188 490 2210C 490 2232 486 2250 480 2250C 475 2250 470 2265 470 2284C 470 2302 463 2323 455 2330C 444 2339 441 2352 445 2372C 450 2392 447 2402 436 2406C 424 2410 420 2423 422 2448C 423 2469 419 2485 412 2488C 405 2490 400 2507 400 2525C 400 2544 396 2562 390 2565C 385 2568 380 2585 380 2601C 380 2618 374 2637 367 2644C 360 2651 330 2685 300 2719C 247 2779 246 2780 193 2780C 164 2780 132 2776 122 2771C 113 2766 97 2759 87 2756C 78 2753 70 2742 70 2731C 70 2720 65 2710 60 2708C 54 2706 47 2689 45 2671C 42 2652 36 2632 30 2626C 17 2613 17 2563 30 2555C 36 2552 40 2534 40 2515C 40 2496 44 2478 50 2475C 55 2472 60 2456 60 2440C 60 2424 65 2408 70 2405C 76 2402 80 2388 80 2375C 80 2363 87 2349 96 2346C 108 2341 111 2332 107 2311C 103 2292 106 2278 115 2270C 123 2263 130 2243 130 2224C 130 2206 134 2188 140 2185C 145 2182 150 2159 150 2135C 150 2111 155 2088 160 2085C 166 2082 170 2064 170 2046C 170 2029 175 2009 182 2002C 189 1995 193 1973 191 1952C 190 1926 194 1909 205 1900C 216 1891 219 1878 215 1859C 210 1839 213 1829 226 1822C 239 1815 242 1804 237 1772C 234 1743 236 1727 246 1719C 254 1713 260 1692 260 1674C 260 1655 265 1640 270 1640C 276 1640 280 1622 280 1600C 280 1578 285 1560 290 1560C 296 1560 300 1545 300 1526C 300 1508 307 1487 315 1480C 326 1471 329 1458 324 1433C 319 1408 322 1394 335 1380C 346 1367 350 1352 346 1337C 342 1321 346 1308 355 1300C 363 1293 370 1272 370 1254C 370 1235 375 1220 380 1220C 386 1220 390 1202 390 1180C 390 1158 395 1140 400 1140C 406 1140 410 1118 410 1091C 410 1061 415 1040 422 1038C 429 1035 433 1019 432 998C 430 973 434 960 446 956C 457 952 460 942 455 922C 451 902 454 889 465 880C 473 873 480 852 480 834C 480 815 485 800 490 800C 496 800 500 785 500 767C 500 749 506 728 513 721C 519 715 526 692 526 672C 529 618 540 577 557 563C 567 556 571 541 568 526C 565 511 569 495 576 489C 584 483 590 463 590 444C 590 426 595 408 600 405C 606 402 610 391 610 381C 610 371 617 357 625 350C 634 342 638 329 634 313C 629 296 633 285 645 276C 657 267 661 255 658 237C 655 221 658 206 666 199C 674 193 680 180 680 171C 680 161 691 143 705 130C 719 117 730 98 730 88C 730 78 738 66 748 63C 757 59 771 50 778 43C 787 35 819 30 871 30C 943 30 953 33 980 57C 997 71 1010 91 1010 100C 1010 109 1024 127 1040 140C 1057 153 1070 169 1070 177C 1070 185 1077 198 1085 207C 1093 215 1098 225 1095 229C 1093 233 1104 250 1120 265C 1137 281 1150 299 1150 306C 1150 312 1157 323 1165 330C 1173 337 1180 350 1180 360C 1180 370 1187 380 1195 384C 1203 387 1210 399 1210 410C 1210 421 1215 430 1220 430C 1226 430 1230 439 1230 450C 1230 461 1237 473 1245 476C 1253 480 1260 490 1260 499C 1260 508 1273 527 1290 540C 1311 558 1319 574 1320 596C 1320 615 1326 630 1335 634C 1343 637 1350 648 1350 659C 1350 669 1357 680 1365 684C 1374 687 1380 702 1380 718C 1380 734 1387 753 1395 760C 1403 767 1410 781 1410 791C 1410 802 1415 810 1420 810C 1426 810 1430 823 1430 839C 1430 855 1437 873 1445 880C 1453 887 1460 900 1460 910C 1460 920 1467 930 1475 934C 1484 937 1490 952 1490 968C 1490 984 1497 1003 1505 1010C 1513 1017 1520 1030 1520 1040C 1520 1050 1527 1060 1535 1064C 1544 1067 1550 1082 1550 1098C 1550 1114 1557 1133 1565 1140C 1573 1147 1580 1160 1580 1170C 1580 1180 1587 1190 1595 1194C 1604 1197 1610 1212 1610 1228C 1610 1244 1619 1265 1630 1275C 1653 1296 1651 1297 1674 1250C 1683 1231 1694 1208 1699 1200C 1704 1192 1713 1172 1720 1155C 1727 1139 1736 1117 1741 1108C 1746 1098 1750 1084 1750 1076C 1750 1069 1757 1057 1765 1050C 1773 1043 1780 1029 1780 1019C 1780 1008 1785 1000 1790 1000C 1796 1000 1800 993 1800 985C 1800 976 1811 952 1825 930C 1839 908 1850 888 1850 885C 1850 881 1861 864 1875 846C 1889 828 1900 809 1900 803C 1900 798 1911 783 1925 770C 1939 757 1950 742 1950 736C 1950 731 1974 695 2003 656C 2032 617 2063 574 2072 560C 2099 517 2251 360 2266 360C 2274 360 2283 353 2286 345C 2290 337 2300 330 2310 330C 2320 330 2333 324 2339 316C 2345 309 2378 300 2416 297C 2479 292 2482 293 2515 325C 2534 343 2550 364 2550 373C 2550 381 2557 390 2565 394C 2573 397 2580 409 2580 420C 2580 431 2584 440 2588 440C 2593 440 2606 462 2618 489C 2630 516 2644 541 2650 545C 2655 548 2660 559 2660 570C 2660 580 2667 590 2675 594C 2683 597 2690 609 2690 620C 2690 631 2697 643 2705 646C 2713 650 2720 660 2720 670C 2720 681 2725 692 2730 695C 2736 699 2750 724 2762 751C 2774 778 2787 800 2792 800C 2796 800 2800 813 2800 829C 2800 845 2807 863 2815 870C 2823 877 2830 890 2830 900C 2830 910 2837 920 2845 924C 2853 927 2860 938 2860 948C 2860 959 2867 973 2875 980C 2883 987 2890 1005 2890 1020C 2890 1036 2897 1050 2905 1054C 2913 1057 2920 1068 2920 1079C 2920 1089 2927 1100 2935 1104C 2944 1107 2950 1122 2950 1138C 2950 1154 2957 1173 2965 1180C 2973 1187 2980 1201 2980 1211C 2980 1222 2984 1230 2989 1230C 2994 1230 3001 1246 3004 1265C 3008 1284 3015 1300 3020 1300C 3026 1300 3030 1311 3030 1324C 3030 1337 3037 1353 3045 1360C 3053 1367 3060 1387 3060 1405C 3060 1423 3067 1443 3075 1450C 3083 1457 3090 1475 3090 1490C 3090 1505 3097 1523 3105 1530C 3114 1538 3120 1559 3120 1585C 3120 1614 3125 1630 3135 1634C 3144 1637 3150 1652 3150 1668C 3150 1684 3157 1703 3165 1710C 3173 1717 3180 1739 3180 1760C 3180 1781 3187 1803 3195 1810C 3204 1818 3210 1840 3210 1867C 3210 1897 3215 1912 3225 1916C 3233 1920 3240 1934 3240 1950C 3240 1965 3247 1983 3255 1990C 3264 1998 3270 2019 3270 2045C 3270 2074 3275 2090 3285 2094C 3295 2098 3300 2114 3300 2145C 3300 2176 3305 2192 3315 2196C 3325 2200 3330 2216 3330 2246C 3330 2276 3335 2292 3345 2296C 3355 2300 3360 2316 3360 2340C 3360 2362 3367 2385 3376 2394C 3385 2403 3394 2429 3396 2451C 3399 2474 3408 2499 3416 2508C 3424 2516 3429 2529 3426 2537C 3423 2544 3429 2567 3440 2588C 3451 2608 3460 2637 3460 2652C 3460 2666 3465 2680 3471 2682C 3476 2684 3483 2706 3486 2730C 3489 2755 3498 2782 3506 2791C 3514 2799 3520 2823 3520 2842C 3520 2862 3527 2883 3535 2890C 3544 2898 3550 2919 3550 2945C 3550 2974 3555 2990 3565 2994C 3575 2998 3580 3014 3580 3044C 3580 3074 3585 3090 3595 3094C 3604 3097 3610 3112 3610 3128C 3610 3144 3617 3163 3625 3170C 3633 3177 3640 3191 3640 3201C 3640 3212 3645 3220 3650 3220C 3656 3220 3660 3234 3660 3250C 3660 3268 3666 3283 3675 3286C 3692 3293 3696 3350 3680 3350C 3675 3350 3670 3358 3670 3368C 3670 3378 3664 3392 3658 3398C 3651 3405 3645 3418 3645 3428C 3645 3440 3635 3446 3612 3448C 3594 3450 3576 3458 3573 3466C 3567 3482 3475 3486 3465 3470z" stroke="none" fill="#000000" fill-rule="nonzero" />
</g>
</svg>