<?xml version="1.0" standalone="no"?>
<!DOCTYPE svg PUBLIC "-//W3C//DTD SVG 1.0//EN" "http://www.w3.org/TR/2001/REC-SVG-20010904/DTD/svg10.dtd">
<svg xmlns="http://www.w3.org/2000/svg" xmlns:xlink="http://www.w3.org/1999/xlink" id="body_1" width="215" height="25">

<g transform="matrix(0.126545 0 0 0.1269036 0 0)">
    <path transform="matrix(0.1333595 0 0 -0.1331081 0 197)"  d="M11998 1465C 11782 1430 11610 1337 11488 1192C 11435 1129 11365 982 11346 893C 11324 792 11325 642 11350 546C 11405 329 11580 142 11802 62C 11930 17 12008 5 12180 6C 12311 6 12355 11 12465 35C 12537 50 12610 65 12628 68C 12670 74 12677 87 12651 111C 12640 122 12627 143 12623 158C 12609 205 12614 462 12628 496C 12642 529 12676 550 12715 550C 12736 550 12740 555 12740 578L12740 578L12740 605L12470 605C 12250 605 12199 602 12195 591C 12185 566 12210 553 12281 546C 12319 543 12366 533 12385 526C 12432 506 12443 460 12438 294C 12434 138 12424 116 12344 88C 12281 66 12100 64 12012 85C 11795 136 11635 306 11569 555C 11540 664 11537 894 11564 990C 11632 1237 11805 1384 12059 1409C 12296 1433 12465 1361 12540 1205C 12556 1171 12570 1135 12570 1127C 12570 1109 12594 1098 12616 1107C 12629 1112 12631 1122 12627 1159C 12623 1184 12616 1256 12609 1318C 12598 1424 12596 1430 12575 1430C 12562 1430 12508 1439 12454 1451C 12325 1478 12115 1484 11998 1465z" stroke="none" fill="#000000" fill-rule="nonzero" />
    <path transform="matrix(0.1333595 0 0 -0.1331081 0 197)"  d="M60 1426C 60 1406 66 1402 108 1396C 191 1385 214 1363 274 1237C 358 1063 689 334 765 157C 828 9 834 -1 858 2C 880 5 890 23 950 165C 987 253 1048 390 1086 469L1086 469L1155 613L1242 414C 1291 304 1349 168 1373 110C 1410 19 1419 5 1441 2C 1465 -1 1469 7 1529 162C 1606 360 1972 1216 2008 1283C 2044 1350 2089 1387 2144 1395C 2186 1402 2207 1420 2194 1441C 2185 1456 1773 1453 1768 1438C 1759 1413 1772 1400 1804 1400C 1851 1400 1898 1381 1905 1360C 1913 1335 1879 1239 1755 930C 1609 566 1486 280 1478 288C 1463 305 1250 795 1250 815C 1250 846 1475 1293 1512 1335C 1550 1380 1570 1390 1629 1399C 1666 1404 1675 1409 1675 1425C 1675 1444 1667 1445 1463 1448L1463 1448L1250 1450L1250 1425C 1250 1403 1254 1400 1288 1400C 1308 1400 1336 1394 1350 1387C 1370 1376 1374 1368 1372 1339C 1369 1302 1306 1140 1240 995L1240 995L1198 905L1168 970C 1082 1160 1010 1334 1010 1355C 1010 1385 1019 1390 1085 1397C 1135 1402 1140 1405 1140 1427L1140 1427L1140 1450L898 1448C 666 1445 655 1444 655 1426C 655 1410 666 1404 712 1395C 744 1389 779 1375 791 1364C 835 1326 1093 766 1093 710C 1093 671 911 275 899 288C 891 296 695 712 590 945C 508 1126 447 1271 430 1324C 414 1373 426 1386 495 1397C 535 1404 545 1409 545 1425C 545 1444 536 1445 303 1448L303 1448L60 1450L60 1426z" stroke="none" fill="#000000" fill-rule="nonzero" />
    <path transform="matrix(0.1333595 0 0 -0.1331081 0 197)"  d="M2297 1443C 2279 1426 2291 1401 2320 1396C 2337 1393 2363 1388 2379 1384C 2395 1381 2418 1368 2431 1354L2431 1354L2455 1328L2458 782C 2460 481 2458 216 2455 192C 2445 125 2418 102 2330 87C 2266 77 2255 72 2255 55C 2255 35 2262 35 2790 35L2790 35L3325 35L3367 160C 3421 321 3422 334 3390 338C 3368 340 3359 332 3328 278C 3308 243 3276 197 3256 174C 3205 115 3162 105 2950 105C 2804 105 2767 108 2727 123C 2647 154 2645 162 2645 465L2645 465L2645 725L2785 728C 3020 733 3046 723 3070 612C 3082 555 3085 550 3109 550L3109 550L3135 550L3134 767L3134 985L3110 985C 3089 985 3084 977 3070 917C 3044 812 3051 815 2832 815L2832 815L2645 815L2642 1084C 2640 1285 2643 1356 2652 1367C 2662 1380 2696 1382 2860 1378C 3038 1375 3059 1372 3102 1351C 3152 1327 3180 1291 3210 1212C 3224 1174 3233 1164 3255 1162L3255 1162L3281 1159L3275 1222C 3271 1257 3264 1318 3259 1358C 3254 1398 3250 1436 3250 1441C 3250 1451 2307 1454 2297 1443z" stroke="none" fill="#000000" fill-rule="nonzero" />
    <path transform="matrix(0.1333595 0 0 -0.1331081 0 197)"  d="M3586 1434C 3577 1409 3587 1402 3638 1395C 3713 1385 3741 1370 3759 1331C 3773 1299 3775 1232 3775 745C 3775 136 3774 129 3716 105C 3699 98 3664 89 3638 86C 3587 78 3577 71 3586 46C 3591 32 3625 30 3866 30L3866 30L4140 30L4140 54C 4140 76 4134 80 4093 85C 4025 94 3991 109 3972 139C 3957 161 3955 219 3952 695C 3950 986 3952 1249 3955 1278C 3964 1354 3989 1378 4073 1392C 4134 1402 4140 1405 4140 1426L4140 1426L4140 1450L3866 1450C 3625 1450 3591 1448 3586 1434z" stroke="none" fill="#000000" fill-rule="nonzero" />
    <path transform="matrix(0.1333595 0 0 -0.1331081 0 197)"  d="M4276 1433C 4267 1410 4281 1399 4337 1389C 4433 1371 4450 1347 4666 923L4666 923L4825 610L4825 380L4825 150L4799 125C 4779 105 4757 96 4702 88C 4636 78 4630 76 4630 54L4630 54L4630 30L4925 30L5220 30L5220 54C 5220 77 5216 79 5150 86C 5067 94 5035 114 5020 168C 5015 188 5010 297 5010 410C 5011 660 5000 629 5211 996C 5384 1296 5444 1373 5516 1385C 5584 1397 5590 1400 5590 1426L5590 1426L5590 1450L5378 1448C 5173 1445 5165 1444 5165 1425C 5165 1410 5175 1403 5205 1396C 5265 1383 5300 1369 5300 1357C 5300 1332 4972 720 4959 720C 4951 720 4689 1248 4665 1313C 4644 1370 4648 1377 4714 1389C 4768 1399 4785 1412 4777 1434C 4771 1448 4739 1450 4526 1450C 4308 1450 4281 1448 4276 1433z" stroke="none" fill="#000000" fill-rule="nonzero" />
    <path transform="matrix(0.1333595 0 0 -0.1331081 0 197)"  d="M5667 1443C 5663 1440 5660 1429 5660 1419C 5660 1405 5672 1400 5718 1394C 5798 1385 5827 1367 5840 1322C 5848 1297 5850 1108 5848 718L5848 718L5845 150L5820 126C 5803 109 5774 96 5730 88C 5676 77 5665 72 5665 55C 5665 35 5672 35 5940 35C 6215 35 6215 35 6218 57C 6221 76 6215 79 6173 85C 6099 95 6078 104 6056 134C 6035 161 6035 174 6032 703C 6030 1001 6032 1265 6035 1289C 6045 1355 6080 1385 6158 1394C 6216 1400 6221 1403 6218 1423C 6215 1445 6214 1445 5944 1448C 5795 1449 5671 1447 5667 1443z" stroke="none" fill="#000000" fill-rule="nonzero" />
    <path transform="matrix(0.1333595 0 0 -0.1331081 0 197)"  d="M7128 1443C 7027 1436 7020 1387 7119 1375C 7192 1367 7218 1348 7230 1295C 7242 1245 7242 241 7231 180C 7220 124 7195 104 7119 89C 7067 79 7060 75 7060 54L7060 54L7060 30L7340 30L7620 30L7620 54C 7620 76 7614 78 7548 88C 7450 103 7431 123 7419 221C 7408 322 7408 1322 7419 1353C 7431 1384 7493 1394 7591 1380C 7713 1363 7796 1305 7842 1205C 7862 1162 7865 1139 7865 1040C 7865 934 7863 920 7837 868C 7794 780 7720 725 7607 696C 7567 686 7555 678 7555 664C 7555 647 7562 645 7618 647C 7743 652 7874 701 7956 773C 7982 796 8012 838 8032 878C 8063 940 8065 952 8065 1045C 8065 1132 8061 1152 8038 1202C 7986 1314 7894 1387 7753 1426C 7707 1440 7642 1443 7440 1445C 7300 1446 7159 1445 7128 1443z" stroke="none" fill="#000000" fill-rule="nonzero" />
    <path transform="matrix(0.1333595 0 0 -0.1331081 0 197)"  d="M8280 1425C 8280 1405 8286 1400 8318 1395C 8383 1384 8403 1374 8424 1346C 8445 1319 8445 1306 8448 787C 8450 494 8448 231 8445 202C 8435 122 8412 101 8317 88C 8246 78 8239 75 8242 56L8242 56L8245 35L8780 35L9315 35L9357 160C 9407 309 9411 340 9376 340C 9357 340 9345 328 9320 283C 9233 128 9198 109 8990 102C 8816 97 8713 110 8676 145C 8635 183 8629 229 8632 487L8632 487L8635 725L8788 728C 9015 732 9035 722 9061 600C 9071 553 9074 549 9097 552L9097 552L9122 555L9123 770L9123 985L9099 985C 9078 985 9073 978 9058 916C 9033 812 9040 815 8822 815L8822 815L8635 815L8632 1092L8630 1370L8655 1376C 8706 1389 9042 1374 9080 1358C 9130 1337 9176 1280 9196 1215C 9212 1165 9216 1160 9242 1160C 9270 1160 9271 1161 9266 1203C 9263 1226 9256 1291 9249 1348L9249 1348L9238 1450L8759 1450L8280 1450L8280 1425z" stroke="none" fill="#000000" fill-rule="nonzero" />
    <path transform="matrix(0.1333595 0 0 -0.1331081 0 197)"  d="M9537 1437C 9528 1413 9545 1400 9600 1390C 9674 1376 9711 1352 9738 1300L9738 1300L9761 1255L9757 730C 9753 211 9749 144 9718 114C 9711 107 9676 95 9640 88C 9586 77 9575 72 9575 55C 9575 36 9583 35 9818 32C 10032 30 10061 32 10067 45C 10076 70 10061 78 9985 90C 9903 103 9885 116 9869 179C 9854 237 9844 1148 9858 1162C 9864 1168 9932 1096 10042 968C 10138 856 10349 614 10511 429C 10673 245 10823 72 10845 46C 10918 -41 10915 -65 10915 608C 10915 1215 10921 1332 10954 1359C 10961 1365 10995 1377 11031 1386C 11097 1403 11112 1413 11103 1437C 11099 1447 11049 1450 10854 1450L10854 1450L10610 1450L10610 1426C 10610 1400 10614 1399 10707 1385C 10812 1369 10819 1334 10826 800C 10830 572 10828 395 10823 381C 10814 359 10808 364 10714 466C 10545 651 10166 1079 10070 1195C 10020 1256 9958 1338 9932 1378L9932 1378L9887 1450L9714 1450C 9580 1450 9541 1447 9537 1437z" stroke="none" fill="#000000" fill-rule="nonzero" />
</g>
</svg>